<?xml version="1.0" standalone="no"?>
<!DOCTYPE svg PUBLIC "-//W3C//DTD SVG 20010904//EN"
 "http://www.w3.org/TR/2001/REC-SVG-20010904/DTD/svg10.dtd">
<svg version="1.0" xmlns="http://www.w3.org/2000/svg"
 width="1024.000000pt" height="1024.000000pt" viewBox="0 0 1024.000000 1024.000000"
 preserveAspectRatio="xMidYMid meet">
<metadata>
Created by potrace 1.11, written by Peter Selinger 2001-2013
</metadata>
<g transform="translate(0.000000,1024.000000) scale(0.100000,-0.100000)"
fill="#000000" stroke="none">
<path d="M5299 9090 c-4 -96 -2 -1820 2 -1820 4 0 7 -745 7 -1655 0 -933 -4
-1652 -9 -1649 -5 3 -6 -3 -2 -12 4 -11 2 -15 -4 -11 -6 4 -8 -3 -5 -18 2 -14
0 -25 -4 -25 -5 0 -10 -17 -10 -38 -1 -20 -4 -48 -7 -62 -3 -14 -6 -33 -6 -43
-1 -10 -5 -15 -11 -12 -6 3 -7 -1 -4 -9 3 -9 2 -16 -4 -16 -5 0 -7 -12 -4 -26
3 -17 1 -25 -5 -21 -6 4 -11 1 -10 -6 1 -29 -4 -48 -10 -44 -5 3 -9 -7 -10
-21 0 -15 -6 -28 -12 -30 -6 -2 -9 -8 -5 -13 3 -5 0 -9 -5 -9 -6 0 -10 -3 -10
-7 4 -22 -2 -33 -13 -27 -7 4 -10 4 -6 -1 9 -10 -19 -65 -33 -65 -6 0 -7 -4
-4 -10 3 -5 2 -10 -2 -10 -5 0 -13 -10 -18 -22 -6 -13 -16 -22 -23 -21 -7 2
-11 0 -10 -5 4 -14 -23 -53 -33 -47 -5 4 -8 1 -7 -7 2 -7 -4 -12 -12 -10 -8 2
-12 0 -8 -3 11 -11 -91 -107 -104 -99 -6 4 -8 3 -5 -3 4 -6 0 -16 -8 -23 -8
-7 -15 -9 -15 -4 0 5 -5 1 -11 -9 -6 -9 -14 -15 -20 -12 -5 4 -9 2 -9 -4 0
-14 -55 -42 -65 -33 -5 4 -4 1 0 -7 6 -11 4 -13 -9 -8 -9 4 -15 3 -12 -2 7
-11 -22 -23 -36 -14 -7 4 -8 1 -3 -7 6 -10 4 -12 -8 -7 -10 4 -17 2 -17 -4 0
-6 -7 -8 -16 -5 -8 3 -12 2 -9 -4 6 -9 -10 -14 -42 -13 -7 1 -10 -4 -6 -10 4
-6 0 -8 -10 -4 -9 3 -19 1 -23 -4 -3 -6 -15 -9 -25 -6 -12 3 -17 1 -12 -6 4
-6 0 -8 -9 -4 -9 3 -20 1 -24 -3 -13 -13 -124 -24 -244 -23 -154 2 -170 3
-170 11 0 5 -13 7 -30 6 -16 -1 -30 2 -30 6 0 4 -9 6 -20 3 -11 -3 -20 0 -20
6 0 5 -7 8 -15 5 -8 -4 -15 -2 -15 4 0 5 -6 10 -12 9 -32 -1 -49 4 -44 12 4 5
-4 7 -16 3 -16 -4 -19 -2 -13 8 5 9 4 11 -3 6 -7 -4 -18 -4 -24 1 -7 4 -19 8
-26 9 -45 7 -86 59 -153 194 -143 288 -141 613 7 903 49 97 84 146 161 228
176 186 392 288 666 314 l67 7 0 600 0 601 -122 -6 c-68 -4 -140 -10 -160 -13
l-36 -6 -1 128 c0 71 0 138 -1 149 0 18 -7 20 -58 19 -32 0 -63 -3 -68 -6 -5
-3 -32 -5 -61 -4 -28 1 -49 -3 -46 -7 3 -5 -13 -6 -36 -4 -22 2 -38 0 -35 -5
5 -7 -31 -12 -88 -11 -10 0 -18 -4 -18 -8 0 -4 -13 -6 -29 -5 -17 1 -27 -2
-24 -7 4 -6 -5 -8 -20 -5 -16 3 -24 1 -20 -5 4 -6 -4 -8 -20 -5 -17 3 -24 1
-20 -5 4 -6 0 -8 -10 -4 -9 3 -19 1 -23 -4 -3 -6 -15 -9 -25 -6 -12 3 -17 1
-12 -6 4 -6 -2 -8 -15 -5 -12 4 -20 2 -16 -3 3 -5 -2 -10 -10 -10 -19 -2 -26
-4 -48 -13 -9 -4 -22 -4 -29 0 -8 4 -9 3 -5 -4 4 -7 4 -12 -1 -13 -4 0 -17 -3
-28 -6 -11 -2 -28 -5 -37 -6 -9 -1 -14 -6 -11 -11 4 -5 -1 -7 -11 -3 -11 5
-15 3 -10 -5 5 -8 2 -9 -10 -5 -10 4 -15 3 -11 -3 3 -6 1 -10 -5 -10 -6 0 -29
-9 -52 -20 -22 -11 -45 -17 -51 -13 -6 4 -7 1 -2 -7 6 -10 4 -12 -11 -6 -10 4
-15 4 -11 0 4 -4 -3 -13 -16 -20 -24 -15 -71 -36 -74 -35 -2 1 -12 -8 -23 -19
-12 -12 -26 -18 -32 -14 -7 4 -8 3 -4 -4 4 -7 -3 -14 -19 -18 -14 -3 -25 -10
-25 -15 0 -5 -7 -9 -15 -9 -8 0 -15 -5 -15 -11 0 -6 -7 -9 -15 -5 -8 3 -14 1
-12 -5 1 -6 -7 -16 -17 -22 -11 -7 -28 -20 -38 -30 -10 -10 -23 -15 -29 -12
-5 4 -8 1 -7 -7 2 -7 -5 -12 -14 -12 -10 1 -18 -2 -18 -8 0 -18 -38 -50 -51
-43 -7 5 -10 4 -6 -2 7 -11 -28 -44 -38 -35 -4 4 -5 0 -3 -8 2 -9 -3 -14 -12
-12 -8 2 -12 0 -8 -4 10 -9 -12 -35 -23 -28 -5 3 -8 0 -7 -7 2 -7 -4 -13 -12
-14 -8 0 -15 -7 -15 -15 -1 -8 -6 -14 -13 -13 -7 2 -11 -3 -9 -10 1 -6 -4 -11
-10 -10 -7 2 -12 -3 -10 -10 1 -6 -4 -11 -11 -9 -8 1 -11 -2 -8 -7 7 -11 -19
-33 -28 -23 -4 4 -6 0 -4 -8 2 -8 -3 -14 -10 -12 -8 1 -11 -2 -7 -8 4 -6 -8
-24 -25 -40 -18 -17 -29 -30 -25 -30 4 0 2 -7 -5 -15 -7 -8 -17 -12 -23 -8 -6
3 -7 1 -3 -6 9 -14 -12 -43 -25 -35 -5 3 -6 -1 -3 -9 3 -8 0 -18 -7 -23 -8 -5
-10 -3 -4 6 6 9 4 11 -4 6 -7 -5 -10 -10 -7 -13 9 -9 -14 -44 -24 -38 -6 4 -7
-1 -3 -11 5 -13 3 -15 -7 -9 -9 5 -11 4 -6 -3 4 -6 -1 -20 -11 -30 -10 -10
-19 -25 -21 -33 -2 -8 -8 -15 -13 -17 -5 -2 -9 -10 -9 -18 0 -9 -4 -12 -10 -9
-6 3 -7 -1 -4 -9 3 -9 1 -16 -6 -16 -6 0 -9 -4 -6 -9 3 -5 -1 -14 -9 -21 -8
-7 -15 -19 -15 -27 0 -8 -5 -11 -12 -7 -6 4 -8 3 -5 -4 7 -10 -20 -71 -36 -83
-5 -3 -9 -10 -8 -15 1 -22 -12 -53 -20 -48 -5 3 -6 -3 -2 -12 4 -11 3 -15 -4
-11 -7 5 -9 0 -6 -13 3 -11 0 -20 -6 -20 -6 0 -11 -11 -11 -25 0 -14 -4 -25
-10 -25 -5 0 -7 -6 -4 -14 3 -8 0 -17 -5 -21 -6 -3 -9 -11 -6 -16 4 -5 1 -9
-5 -9 -6 0 -8 -4 -5 -10 3 -5 3 -16 -2 -22 -4 -7 -9 -22 -10 -33 -2 -11 -8
-24 -13 -29 -4 -4 -6 -15 -3 -22 3 -8 1 -14 -5 -14 -6 0 -8 -10 -4 -22 3 -11
1 -19 -4 -16 -5 4 -10 -4 -11 -15 0 -12 -4 -35 -7 -52 -4 -16 -7 -40 -7 -52 1
-12 -3 -24 -8 -28 -5 -3 -7 -14 -4 -25 3 -11 1 -20 -3 -20 -5 0 -10 -19 -11
-43 -1 -23 -4 -67 -7 -97 -9 -91 -12 -330 -3 -330 4 0 7 -21 7 -47 0 -81 5
-128 12 -134 4 -3 9 -28 10 -57 2 -29 7 -52 12 -52 4 0 6 -7 3 -15 -4 -8 -2
-17 4 -21 6 -3 8 -12 5 -20 -3 -7 -1 -16 4 -19 4 -3 7 -16 6 -30 -2 -14 1 -22
7 -18 6 4 8 -4 5 -20 -3 -16 -1 -24 5 -20 6 4 8 -2 5 -15 -4 -12 -2 -20 3 -16
8 5 12 -9 12 -48 0 -10 4 -15 10 -11 6 4 8 0 4 -10 -3 -10 -3 -17 1 -17 6 0
26 -49 35 -85 1 -5 6 -16 10 -22 5 -7 5 -18 1 -25 -4 -6 -3 -8 3 -5 12 7 35
-47 26 -57 -4 -3 -1 -6 6 -6 8 0 11 -6 7 -16 -3 -8 -2 -13 3 -10 11 7 32 -49
23 -60 -4 -4 -2 -4 4 -1 13 8 27 -20 18 -34 -3 -5 1 -9 9 -9 17 0 40 -47 31
-63 -4 -7 -3 -9 1 -4 11 9 46 -43 38 -56 -3 -6 -1 -7 5 -3 11 7 17 -6 13 -27
-1 -5 3 -6 9 -2 9 6 14 -8 11 -28 -1 -5 3 -6 9 -2 9 6 14 -7 11 -27 0 -5 5 -7
12 -5 6 1 12 -7 12 -18 0 -11 7 -20 15 -20 8 0 15 -9 15 -20 1 -11 6 -19 13
-18 6 2 17 -7 23 -20 7 -12 21 -29 31 -38 10 -10 17 -23 16 -30 -2 -7 2 -13 8
-14 16 0 44 -32 36 -40 -4 -5 -2 -5 4 -2 14 8 37 -17 26 -27 -4 -4 0 -6 8 -4
8 2 14 -3 12 -10 -1 -8 2 -11 8 -7 6 3 14 -4 19 -17 6 -13 10 -19 10 -14 1 5
8 3 16 -4 8 -7 12 -16 9 -21 -3 -5 0 -8 8 -7 7 2 12 -3 10 -10 -1 -8 2 -11 7
-8 5 3 14 -1 21 -9 7 -8 10 -15 6 -15 -3 0 7 -12 22 -28 15 -15 44 -47 64 -72
253 -316 715 -598 1145 -700 226 -54 502 -73 728 -51 589 58 1120 343 1505
808 196 238 357 567 433 888 57 237 57 245 57 1787 0 780 2 1418 5 1418 3 0
47 -31 99 -69 554 -411 1272 -659 1994 -688 l162 -6 0 600 0 600 -132 7 c-73
5 -144 9 -158 10 l-25 3 0 129 0 129 -88 -2 c-48 -1 -86 1 -83 5 2 4 -25 6
-60 5 -36 -1 -62 1 -60 5 2 4 -13 6 -35 5 -21 -1 -39 1 -39 6 0 4 -16 5 -36 3
-21 -3 -34 -1 -31 5 3 5 -7 8 -24 7 -16 -1 -29 1 -29 6 0 4 -11 5 -25 2 -14
-2 -25 0 -25 5 0 6 -12 8 -26 5 -17 -3 -25 -1 -21 5 4 6 -4 8 -20 5 -16 -3
-24 -1 -20 5 4 6 -3 8 -18 5 -14 -2 -25 0 -25 7 0 5 -7 8 -15 5 -8 -3 -20 -2
-27 2 -7 5 -16 9 -20 10 -5 1 -10 3 -13 4 -8 4 -24 7 -41 9 -8 0 -12 6 -9 11
4 7 -2 9 -19 4 -16 -4 -26 -2 -26 5 0 6 -3 10 -7 9 -18 -4 -73 14 -68 23 4 5
-2 6 -11 2 -13 -5 -15 -3 -9 7 5 9 4 11 -4 6 -16 -10 -53 3 -45 16 4 7 2 8 -4
4 -12 -7 -82 21 -93 37 -3 5 -9 8 -13 8 -20 -3 -26 0 -21 9 4 6 3 10 -2 9 -19
-5 -62 14 -56 24 3 5 1 7 -4 4 -13 -8 -73 20 -73 34 0 5 -3 8 -7 8 -21 -3 -33
3 -33 17 0 8 -4 12 -10 9 -12 -8 -52 13 -45 24 2 5 -3 8 -13 7 -9 0 -16 4 -15
11 2 7 -3 10 -10 7 -7 -2 -42 26 -78 63 -36 38 -90 87 -120 110 -69 53 -192
180 -250 258 -24 33 -46 62 -49 65 -3 3 -11 16 -19 30 -8 14 -32 53 -53 88
-21 34 -60 102 -85 150 -26 48 -50 89 -55 90 -4 2 -6 8 -3 13 3 5 0 19 -7 31
-7 13 -11 26 -10 31 1 4 -2 7 -6 7 -12 0 -32 46 -32 71 0 12 -16 70 -37 131
-30 91 -34 111 -22 119 11 7 9 10 -9 15 -14 4 -21 12 -18 20 3 8 1 14 -5 14
-6 0 -9 16 -8 38 2 21 0 42 -3 48 -4 5 -6 40 -4 77 2 60 0 68 -18 73 -12 4
-274 7 -584 8 -493 1 -562 -1 -563 -14z"/>
</g>
</svg>
